<?xml version="1.0" encoding="utf-8"?>
<!-- Generator: Adobe Illustrator 16.0.0, SVG Export Plug-In . SVG Version: 6.00 Build 0)  -->
<!DOCTYPE svg PUBLIC "-//W3C//DTD SVG 1.1//EN" "http://www.w3.org/Graphics/SVG/1.1/DTD/svg11.dtd">
<svg version="1.1" id="Layer_1" xmlns="http://www.w3.org/2000/svg" xmlns:xlink="http://www.w3.org/1999/xlink" x="0px" y="0px"
	 width="200px" height="55px" viewBox="0 0 200 55" enable-background="new 0 0 200 55" xml:space="preserve">
<path stroke="#FFFFFF" stroke-width="0.08" stroke-miterlimit="10" d="M0,4.366c1.728-0.424,4.148-0.659,6.453-0.659
	c3.572,0,5.877,0.801,7.489,2.592c1.268,1.412,2.036,3.58,2.036,6.03c0,4.194-2.151,6.975-4.877,8.106v0.093
	c1.996,0.895,3.187,3.205,3.802,6.455c0.845,4.475,1.459,7.492,1.998,8.718h-3.457c-0.423-0.895-0.999-3.629-1.729-7.586
	c-0.769-4.336-2.151-6.032-5.185-6.173H3.38v13.759H0V4.366z M3.38,18.832h3.418c3.572,0,5.838-2.403,5.838-6.031
	c0-4.147-2.419-5.89-5.954-5.937c-1.652,0-2.765,0.188-3.303,0.376V18.832z"/>
<path stroke="#FFFFFF" stroke-width="0.08" stroke-miterlimit="10" d="M40.983,3.942l8.488,31.759h-3.648L41.79,20.057
	c-1.076-4.287-2.074-8.197-2.765-11.874h-0.115c-0.73,3.677-1.767,7.681-2.919,11.78l-4.378,15.738h-3.572l9.256-31.759H40.983z"/>
<path stroke="#FFFFFF" stroke-width="0.08" stroke-miterlimit="10" d="M83.618,21.753c-0.23-4.381-0.461-9.753-0.423-13.664h-0.116
	c-0.883,3.674-2.035,7.963-3.303,12.204l-4.493,15.219h-2.651l-4.109-15.125c-1.267-4.478-2.266-8.576-2.957-12.298H65.45
	c-0.115,3.91-0.23,9.187-0.499,13.994l-0.692,13.618h-3.187l1.805-31.759h4.264l4.417,15.408c1.075,3.816,1.92,7.586,2.574,10.884
	h0.115c0.653-3.202,1.575-6.926,2.766-10.931L81.62,3.942h4.264l1.613,31.759h-3.304L83.618,21.753z"/>
<path stroke="#FFFFFF" stroke-width="0.08" stroke-miterlimit="10" d="M102.132,4.319c1.614-0.331,3.804-0.613,6.454-0.613
	c3.303,0,5.723,0.942,7.259,2.639c1.382,1.508,2.267,3.817,2.267,6.69c0,2.921-0.691,5.185-1.998,6.833
	c-1.767,2.309-4.648,3.487-7.835,3.487c-1.075,0-2.074-0.095-2.767-0.236v12.581h-3.38V4.319z M105.512,19.773
	c0.539,0.189,1.652,0.283,2.767,0.283c4.032,0,6.49-2.449,6.49-6.784c0-4.289-2.419-6.315-6.106-6.315
	c-1.498,0-2.573,0.142-3.15,0.283V19.773z"/>
<path stroke="#FFFFFF" stroke-width="0.08" stroke-miterlimit="10" d="M135.089,0.361v47.121h-2.573V0.361H135.089z"/>
<path stroke="#FFFFFF" stroke-width="0.08" stroke-miterlimit="10" d="M0,50.895h200v2.573H0V50.895z"/>
<path stroke="#FFFFFF" stroke-width="0.08" stroke-miterlimit="10" d="M150.798,4.319c1.612-0.331,3.802-0.613,6.452-0.613
	c3.304,0,5.723,0.942,7.261,2.639c1.38,1.508,2.267,3.817,2.267,6.69c0,2.921-0.693,5.185-1.998,6.833
	c-1.768,2.309-4.647,3.487-7.837,3.487c-1.074,0-2.073-0.095-2.764-0.236v12.581h-3.381V4.319z M154.179,19.773
	c0.536,0.189,1.65,0.283,2.764,0.283c4.033,0,6.491-2.449,6.491-6.784c0-4.289-2.42-6.315-6.106-6.315
	c-1.498,0-2.573,0.142-3.148,0.283V19.773z"/>
<path stroke="#FFFFFF" stroke-width="0.08" stroke-miterlimit="10" d="M184.138,3.942v13.334h12.521V3.942H200v31.759h-3.341V20.81
	h-12.521v14.891h-3.379V3.942H184.138z"/>
</svg>
