<?xml version="1.0" encoding="utf-8"?>
<!-- Generator: Adobe Illustrator 16.0.0, SVG Export Plug-In . SVG Version: 6.00 Build 0)  -->
<!DOCTYPE svg PUBLIC "-//W3C//DTD SVG 1.1//EN" "http://www.w3.org/Graphics/SVG/1.1/DTD/svg11.dtd">
<svg version="1.1" id="Layer_1" xmlns="http://www.w3.org/2000/svg" xmlns:xlink="http://www.w3.org/1999/xlink" x="0px" y="0px"
	 width="123px" height="48.5px" viewBox="0 0 123 48.5" enable-background="new 0 0 123 48.5" xml:space="preserve">
<path d="M3.446,22.95v10.688H0.458V7.938h7.049c3.152,0,5.481,0.604,6.987,1.811s2.259,3.023,2.259,5.449
	c0,3.398-1.723,5.695-5.168,6.891l6.979,11.549H15.03L8.808,22.95H3.446z M3.446,20.384h4.096c2.109,0,3.656-0.419,4.641-1.257
	s1.477-2.095,1.477-3.771c0-1.699-0.501-2.924-1.503-3.674s-2.61-1.125-4.825-1.125H3.446V20.384z"/>
<path d="M32.396,33.638h-3.217l9.264-25.699h2.953l9.211,25.699h-3.164l-5.906-16.629c-0.68-1.91-1.219-3.768-1.617-5.572
	c-0.422,1.898-0.973,3.791-1.652,5.678L32.396,33.638z"/>
<path d="M75.513,33.638l-8.719-22.781h-0.141c0.164,1.805,0.246,3.949,0.246,6.434v16.348h-2.76V7.938h4.5l8.139,21.199h0.141
	l8.209-21.199h4.465v25.699h-2.988V17.079c0-1.898,0.082-3.961,0.246-6.188H86.71l-8.789,22.746H75.513z"/>
<path d="M122.937,15.427c0,2.602-0.888,4.603-2.663,6.003s-4.315,2.101-7.62,2.101h-3.023v10.107h-2.988V7.938h6.662
	C119.726,7.938,122.937,10.435,122.937,15.427z M109.63,20.964h2.689c2.648,0,4.564-0.428,5.748-1.283s1.775-2.227,1.775-4.113
	c0-1.699-0.557-2.965-1.67-3.797s-2.848-1.248-5.203-1.248h-3.34V20.964z"/>
<g>
	<line x1="0" y1="38" x2="123" y2="38"/>
	<rect y="37" width="123" height="1"/>
</g>
</svg>
