<?xml version="1.0" encoding="utf-8"?>
<!-- Generator: Adobe Illustrator 16.0.0, SVG Export Plug-In . SVG Version: 6.00 Build 0)  -->
<!DOCTYPE svg PUBLIC "-//W3C//DTD SVG 1.1//EN" "http://www.w3.org/Graphics/SVG/1.1/DTD/svg11.dtd">
<svg version="1.1" id="Layer_1" xmlns="http://www.w3.org/2000/svg" xmlns:xlink="http://www.w3.org/1999/xlink" x="0px" y="0px"
	 width="200px" height="55px" viewBox="0 0 200 55" enable-background="new 0 0 200 55" xml:space="preserve">
<path d="M0,4.519c1.728-0.44,4.148-0.684,6.453-0.684c3.572,0,5.877,0.832,7.489,2.69c1.268,1.466,2.036,3.717,2.036,6.261
	c0,4.354-2.151,7.241-4.877,8.416v0.097c1.996,0.929,3.187,3.327,3.802,6.701c0.845,4.646,1.459,7.779,1.998,9.051h-3.457
	c-0.423-0.929-0.999-3.768-1.729-7.876c-0.769-4.501-2.151-6.262-5.185-6.409H3.38v14.285H0V4.519z M3.38,19.537h3.418
	c3.572,0,5.838-2.495,5.838-6.261c0-4.306-2.419-6.115-5.954-6.164c-1.652,0-2.765,0.195-3.303,0.391V19.537z"/>
<path d="M40.983,4.079l8.488,32.972h-3.648L41.79,20.809c-1.076-4.451-2.074-8.51-2.765-12.327h-0.115
	c-0.73,3.817-1.767,7.974-2.919,12.229l-4.378,16.339h-3.572l9.256-32.972H40.983z"/>
<path d="M83.618,22.57c-0.23-4.549-0.461-10.126-0.423-14.186h-0.116c-0.883,3.814-2.035,8.267-3.303,12.67l-4.493,15.8h-2.651
	l-4.109-15.703c-1.267-4.648-2.266-8.903-2.957-12.768H65.45c-0.115,4.06-0.23,9.538-0.499,14.528l-0.692,14.138h-3.187
	l1.805-32.972h4.264l4.417,15.997c1.075,3.962,1.92,7.875,2.574,11.3h0.115c0.653-3.324,1.575-7.191,2.766-11.349L81.62,4.079h4.264
	l1.613,32.972h-3.304L83.618,22.57z"/>
<path d="M102.132,4.471c1.614-0.344,3.804-0.636,6.454-0.636c3.303,0,5.723,0.978,7.259,2.739c1.382,1.566,2.267,3.962,2.267,6.946
	c0,3.032-0.691,5.382-1.998,7.094c-1.767,2.397-4.648,3.621-7.835,3.621c-1.075,0-2.074-0.099-2.767-0.245v13.062h-3.38V4.471z
	 M105.512,20.515c0.539,0.196,1.652,0.294,2.767,0.294c4.032,0,6.49-2.543,6.49-7.043c0-4.453-2.419-6.556-6.106-6.556
	c-1.498,0-2.573,0.147-3.15,0.293V20.515z"/>
<path d="M135.089,0.361V49.28h-2.573V0.361H135.089z"/>
<path d="M0,50.895h200v2.573H0V50.895z"/>
<path d="M150.798,4.471c1.612-0.344,3.802-0.636,6.452-0.636c3.304,0,5.723,0.978,7.261,2.739c1.38,1.566,2.267,3.962,2.267,6.946
	c0,3.032-0.693,5.382-1.998,7.094c-1.768,2.397-4.647,3.621-7.837,3.621c-1.074,0-2.073-0.099-2.764-0.245v13.062h-3.381V4.471z
	 M154.179,20.515c0.536,0.196,1.65,0.294,2.764,0.294c4.033,0,6.491-2.543,6.491-7.043c0-4.453-2.42-6.556-6.106-6.556
	c-1.498,0-2.573,0.147-3.148,0.293V20.515z"/>
<path d="M184.138,4.079v13.843h12.521V4.079H200v32.972h-3.341v-15.46h-12.521v15.46h-3.379V4.079H184.138z"/>
</svg>
