<?xml version="1.0" encoding="utf-8"?>
<!-- Generator: Adobe Illustrator 16.0.0, SVG Export Plug-In . SVG Version: 6.00 Build 0)  -->
<!DOCTYPE svg PUBLIC "-//W3C//DTD SVG 1.1//EN" "http://www.w3.org/Graphics/SVG/1.1/DTD/svg11.dtd">
<svg version="1.1" id="Layer_1" xmlns="http://www.w3.org/2000/svg" xmlns:xlink="http://www.w3.org/1999/xlink" x="0px" y="0px"
	 width="200px" height="55px" viewBox="0 0 200 55" enable-background="new 0 0 200 55" xml:space="preserve">
<path stroke="#FFFFFF" stroke-width="0.08" stroke-miterlimit="10" d="M0,5.007c1.728-0.492,4.148-0.765,6.453-0.765
	c3.572,0,5.877,0.93,7.489,3.007c1.268,1.638,2.036,4.154,2.036,6.997c0,4.866-2.151,8.092-4.877,9.405v0.108
	c1.996,1.038,3.187,3.718,3.802,7.489c0.845,5.191,1.459,8.692,1.998,10.114h-3.457c-0.423-1.037-0.999-4.21-1.729-8.801
	c-0.769-5.031-2.151-6.998-5.185-7.162H3.38v15.962H0V5.007z M3.38,21.791h3.418c3.572,0,5.838-2.788,5.838-6.997
	c0-4.811-2.419-6.833-5.954-6.888c-1.652,0-2.765,0.218-3.303,0.437V21.791z"/>
<path stroke="#FFFFFF" stroke-width="0.08" stroke-miterlimit="10" d="M40.983,4.516l8.488,36.847h-3.648l-4.033-18.15
	c-1.076-4.974-2.074-9.51-2.765-13.776h-0.115c-0.73,4.266-1.767,8.912-2.919,13.667l-4.378,18.259h-3.572l9.256-36.847H40.983z"/>
<path stroke="#FFFFFF" stroke-width="0.08" stroke-miterlimit="10" d="M83.618,25.18c-0.23-5.083-0.461-11.316-0.423-15.853h-0.116
	c-0.883,4.263-2.035,9.238-3.303,14.159l-4.493,17.658h-2.651l-4.109-17.549c-1.267-5.195-2.266-9.95-2.957-14.268H65.45
	c-0.115,4.537-0.23,10.659-0.499,16.236l-0.692,15.799h-3.187l1.805-36.847h4.264l4.417,17.876c1.075,4.428,1.92,8.801,2.574,12.628
	h0.115c0.653-3.715,1.575-8.036,2.766-12.683L81.62,4.516h4.264l1.613,36.847h-3.304L83.618,25.18z"/>
<path stroke="#FFFFFF" stroke-width="0.08" stroke-miterlimit="10" d="M102.132,4.954c1.614-0.384,3.804-0.711,6.454-0.711
	c3.303,0,5.723,1.093,7.259,3.061c1.382,1.75,2.267,4.429,2.267,7.763c0,3.389-0.691,6.015-1.998,7.927
	c-1.767,2.679-4.648,4.046-7.835,4.046c-1.075,0-2.074-0.111-2.767-0.274v14.596h-3.38V4.954z M105.512,22.883
	c0.539,0.219,1.652,0.329,2.767,0.329c4.032,0,6.49-2.841,6.49-7.871c0-4.976-2.419-7.327-6.106-7.327
	c-1.498,0-2.573,0.165-3.15,0.328V22.883z"/>
<path stroke="#FFFFFF" stroke-width="0.08" stroke-miterlimit="10" d="M135.089,0.361V55.03h-2.573V0.361H135.089z"/>
<path stroke="#FFFFFF" stroke-width="0.08" stroke-miterlimit="10" d="M150.798,4.954c1.612-0.384,3.802-0.711,6.452-0.711
	c3.304,0,5.723,1.093,7.261,3.061c1.38,1.75,2.267,4.429,2.267,7.763c0,3.389-0.693,6.015-1.998,7.927
	c-1.768,2.679-4.647,4.046-7.837,4.046c-1.074,0-2.073-0.111-2.764-0.274v14.596h-3.381V4.954z M154.179,22.883
	c0.536,0.219,1.65,0.329,2.764,0.329c4.033,0,6.491-2.841,6.491-7.871c0-4.976-2.42-7.327-6.106-7.327
	c-1.498,0-2.573,0.165-3.148,0.328V22.883z"/>
<path stroke="#FFFFFF" stroke-width="0.08" stroke-miterlimit="10" d="M184.138,4.516v15.471h12.521V4.516H200v36.847h-3.341V24.086
	h-12.521v17.276h-3.379V4.516H184.138z"/>
</svg>
